<?xml version="1.0" encoding="utf-8"?>
<!-- Generator: Adobe Illustrator 30.1.0, SVG Export Plug-In . SVG Version: 9.03 Build 0)  -->
<svg version="1.0" id="Ebene_1" xmlns="http://www.w3.org/2000/svg" xmlns:xlink="http://www.w3.org/1999/xlink" x="0px" y="0px"
	 viewBox="0 0 462 96" style="enable-background:new 0 0 462 96;" xml:space="preserve">
<style type="text/css">
	.st0{fill:#FABE00;}
	.st1{fill:#E3000F;}
	.st2{fill:#FFFFFF;}
	.st3{fill:#FFD842;}
</style>
<g>
	<g>
		<path class="st0" d="M68.5,48.8c-12.7,0-21.2,8-21.2,19.9c0,12.3,8,19.9,20.8,19.9c13,0,21.5-7.9,21.5-20.1
			C89.5,56.4,81.4,48.8,68.5,48.8 M68.6,81.7c-6.3,0-10.3-5-10.3-12.7c0-8.1,4-13.2,10.4-13.2c6.1,0,9.9,4.9,9.9,12.7
			C78.5,76.5,74.6,81.7,68.6,81.7"/>
		<path class="st1" d="M238.2,49.2c-11.4,0-16.1,4.7-16.1,16.3v0.9c0,7-0.2,14.7-0.4,18.7c0,0-0.1,2.5-0.1,2.5h11.5l-0.2-2.3
			c-0.2-3.6-0.3-6.9-0.3-10.2v-2l0.1-5.6v-2c0.2-4,1.6-8.8,7.1-8.8c2,0,4.7,0.6,5.3,1l0.6,0.3l1.2-7.5l-0.4-0.1
			C243.3,49.5,240.1,49.2,238.2,49.2"/>
		<path class="st1" d="M167.1,56.6l1.1-7.4h-11.9v-2.5c0.2-5.5,2.5-8.3,6.7-8.3c2.6,0,3.9,0,7.4,1l0.5,0.1l1-7.4l-0.4-0.1
			c-2.8-0.9-8.1-1.3-10.1-1.3c-9.8,0-15.4,5.7-15.8,16c0,0,0,7,0,7l0.1,13.5l-0.2,16.6l-0.2,10V96h11.1v-2.4l-0.3-9.7
			c0,0-0.1-10.7-0.1-10.7v-8.6c0,0,0.1-6.2,0.1-7.9H167.1z"/>
		<path class="st1" d="M192,48.8c-12.7,0-21.2,8-21.2,19.9c0,12.3,8,19.9,20.8,19.9c13,0,21.5-7.9,21.5-20.1
			C213,56.4,205,48.8,192,48.8 M192.1,81.7c-6.3,0-10.3-5-10.3-12.7c0-8.1,4-13.2,10.4-13.2c6.1,0,9.9,4.9,9.9,12.7
			C202,76.5,198.1,81.7,192.1,81.7"/>
		<path class="st1" d="M134.3,78.1v-6.3l0.1-6.3c0-10.2-5.8-16.2-15.4-16.2h-6.4c-9.7,0-15.4,6.1-15.4,16.2l0,2.3
			c0,10,0,12.3-0.4,19.3l0,0.5h11.4l-0.1-2.9l-0.3-8l-0.2-7.9v-0.9c0-4.3,0.3-5.6,1.2-7.5c1.1-2.3,3.8-3.7,7-3.7
			c3.1,0,5.9,1.5,7,3.7c0.9,1.9,1.2,3.1,1.2,7.5v0.9l-0.2,7.9l-0.3,8l-0.1,2.9h11.2l-0.1-2.6C134.4,85.1,134.3,78.1,134.3,78.1"/>
		<path class="st1" d="M361.3,78.1l0-2.1v-2.7c0,0,0.2-8,0.2-8c0-6.9-1.7-10.8-5.7-13.5c-2.6-1.8-6.3-2.8-10.4-2.8
			c-5.7,0-10.6,1.8-13.7,5c-2.7-3.2-6.7-4.9-11.7-4.9h-6.3c-9.7,0-15.4,6.1-15.4,16.2l0,2.3c0,10,0,12.3-0.4,19.4l0,0.5h11.4
			l-0.1-2.9l-0.3-8l-0.2-7.9v-0.9c0-4.3,0.3-5.6,1.2-7.5c1.1-2.3,3.8-3.7,7-3.7c3.1,0,5.9,1.5,7,3.7c0.9,1.9,1.2,3.1,1.2,7.5v0.9
			l-0.2,7.9l-0.3,8l-0.1,2.9h11.2l-0.1-2.6c0,0.1-0.1-6.8-0.1-6.8l0-6.3l0.1-7c0.1-1.7,0.5-2.7,1-3.8c0.5-1,1.1-1.9,2-2.7
			c1.2-1.1,3.1-1.8,5-1.8c3.2,0,6.1,1.9,6.9,4.7c0.4,1.5,0.5,3,0.5,8.1c0,6-0.1,10.1-0.5,15.8c0,0-0.2,1.9-0.2,1.9l0,0.5h11.5
			l-0.1-2.2C361.4,85.4,361.3,78.1,361.3,78.1"/>
		<path class="st1" d="M406.4,63.3v-0.8c0-6.1-1.9-9.5-6.7-11.5c-2.9-1.3-6-1.8-10.3-1.8c-5,0-10.5,0.8-14.8,2.1l-0.4,0.1l1.1,7.5
			l0.5-0.2c4-1.7,8.1-2.6,11.7-2.6c6.1,0,8.5,2.2,8.5,7.6c0,0,0,0.5-0.1,0.9c-8.5-0.4-14.9,0.1-18.5,1.7c-5,2.2-7.5,5.5-7.5,10.1
			c0,4.7,3,9,7.7,11c5.1,2.2,12.6,1.7,15.6,1.3c2.4-0.3,10.5-1.7,12.3-7.9C406.5,78,406.4,66.9,406.4,63.3 M396.2,71V72
			c0,3.6-0.1,4.8-0.9,6.3c-0.4,0.9-1.2,1.6-2.2,2.1c-2,1-3.5,1.2-5.6,1.2c-2.2,0-4.3-0.8-5.5-2c-1.5-1.5-1.3-3.9-0.3-5.4
			c1.4-2.2,4.9-3.1,12-3.1C393.8,71,395.6,71,396.2,71"/>
		<path class="st1" d="M287.8,62.5c0-6.1-1.9-9.5-6.7-11.5c-2.9-1.3-6-1.8-10.3-1.8c-5,0-10.5,0.8-14.8,2.1l-0.4,0.1l1.1,7.5
			l0.5-0.2c4-1.7,8.1-2.6,11.7-2.6c6.1,0,8.5,2.2,8.5,7.6c0,0,0,0.5-0.1,0.9c-8.5-0.4-14.9,0.1-18.5,1.7c-5,2.2-7.5,5.5-7.5,10.1
			c0,4.7,3,9,7.7,11c5.1,2.2,12.6,1.7,15.6,1.3c2.4-0.3,10.5-1.7,12.3-7.9c0.8-2.7,0.7-13.8,0.7-17.4V62.5z M277.6,71V72
			c0,3.6-0.1,4.8-0.9,6.3c-0.4,0.8-1.2,1.6-2.2,2.1c-2,1-3.5,1.2-5.6,1.2c-2.2,0-4.3-0.8-5.5-2c-1.5-1.5-1.3-3.9-0.3-5.4
			c1.4-2.2,4.9-3.1,12.1-3.1C275.2,71,277,71,277.6,71"/>
		<path class="st1" d="M32.5,38.8c4.9-0.2,9.9,0.9,15.3,3.3l0.5,0.2v-9.2l-0.1,0c-5.4-1.6-11.2-2.4-17.5-2.2
			c-9.9,0.3-18,3.5-23.4,9.3c-5,5.3-7.5,12.6-7.2,21.1c0.2,8.1,3,14.9,8,19.6c5.6,5.3,14,7.9,24.1,7.6c3.7-0.1,7.1-0.5,10.6-1.3
			l0.5-0.1l-3-7.4l-0.4,0.1c-2.2,0.5-4.2,0.7-5.9,0.8C21.4,80.9,14.2,74,13.8,61C13.4,47.7,20.6,39.2,32.5,38.8"/>
		<path class="st1" d="M418.3,30.6c-1.8,0-3.3,1.5-3.3,3.3v31.9c0,1.8,1.5,3.3,3.3,3.3h40.5c1.8,0,3.3-1.5,3.3-3.3V33.8
			c0-1.8-1.5-3.3-3.3-3.3H418.3z"/>
	</g>
	<polygon class="st2" points="454.5,44.9 443.3,44.9 443.3,33.8 433.8,33.8 433.8,44.9 422.6,44.9 422.6,54.8 433.8,54.8 
		433.8,65.8 443.3,65.8 443.3,54.8 454.5,54.8 	"/>
	<g>
		<g>
			<path class="st0" d="M82.1,16.9l-19.7-6.6l-3.5,10.5c1.2-0.8,2.7-1.2,4.5-1.4c1.8-0.1,3.6,0.1,5.4,0.7c3.2,1.1,5.7,2.7,7.2,4.8
				c1.6,2.1,2.5,4.4,2.7,7c0.2,2.5-0.1,5.1-1,7.6c-1.6,4.7-4.2,8-7.8,10c-3.6,2-7.9,2.1-12.8,0.5c-4.6-1.5-7.9-3.9-9.9-7.2
				c-2-3.2-2.5-6.8-1.6-10.7l8.3,2.8c-0.2,1.8,0.2,3.3,1.2,4.7s2.4,2.4,4.4,3.1c2.4,0.8,4.4,0.6,6.2-0.5c1.7-1.1,3-2.9,3.8-5.4
				c0.8-2.5,0.9-4.7,0.1-6.4c-0.8-1.7-2.4-3-4.8-3.8c-1.7-0.6-3.3-0.6-4.7-0.1c-1.4,0.5-2.6,1.3-3.6,2.6l-8.1-2.7l8.8-26.2l27.5,9.2
				L82.1,16.9z"/>
		</g>
	</g>
</g>
</svg>
